<?xml version="1.0" standalone="no"?>
<!DOCTYPE svg PUBLIC "-//W3C//DTD SVG 20010904//EN"
 "http://www.w3.org/TR/2001/REC-SVG-20010904/DTD/svg10.dtd">
<svg version="1.0" xmlns="http://www.w3.org/2000/svg"
 width="512.000000pt" height="512.000000pt" viewBox="0 0 512.000000 512.000000"
 preserveAspectRatio="xMidYMid meet">

<g transform="translate(0.000000,512.000000) scale(0.100000,-0.100000)"
fill="#000000" stroke="none">
<path d="M1920 4905 l0 -215 215 0 215 0 -2 -217 -3 -217 -98 -13 c-294 -40
-644 -178 -899 -356 -16 -10 -39 9 -184 153 l-165 165 -145 -148 c-79 -82
-144 -152 -144 -155 0 -4 67 -74 149 -156 l149 -149 -80 -95 c-266 -316 -437
-713 -488 -1132 -13 -109 -13 -372 0 -480 48 -382 190 -739 413 -1036 333
-444 811 -733 1372 -831 153 -27 539 -24 695 5 449 82 830 281 1146 596 345
346 558 787 614 1271 13 116 13 367 0 475 -51 419 -222 816 -488 1132 l-80 95
149 149 c82 82 149 152 149 156 0 3 -65 73 -144 155 l-145 148 -164 -164 -165
-164 -97 62 c-249 156 -552 268 -823 304 l-97 13 -3 217 -2 217 215 0 215 0 0
215 0 215 -640 0 -640 0 0 -215z m976 -1099 c432 -90 802 -331 1059 -691 124
-173 239 -443 279 -654 86 -451 -5 -895 -262 -1281 -93 -141 -290 -343 -432
-443 -181 -127 -417 -228 -650 -278 -91 -20 -135 -23 -330 -23 -197 0 -238 2
-330 22 -271 59 -535 181 -735 341 -127 102 -300 297 -384 433 -314 515 -341
1126 -75 1663 251 507 728 848 1304 931 145 21 403 11 556 -20z"/>
<path d="M2560 2770 l0 -640 -640 0 -640 0 0 -42 c0 -145 57 -364 135 -523
279 -566 928 -839 1539 -649 312 98 598 342 745 638 101 203 136 352 136 581
0 171 -14 259 -62 405 -128 382 -443 692 -829 813 -103 33 -241 57 -321 57
l-63 0 0 -640z"/>
</g>
</svg>
